<?xml version="1.0" encoding="utf-8"?>
<!-- Generator: Adobe Illustrator 15.0.2, SVG Export Plug-In  -->
<!DOCTYPE svg PUBLIC "-//W3C//DTD SVG 1.1//EN" "http://www.w3.org/Graphics/SVG/1.1/DTD/svg11.dtd" [
	<!ENTITY ns_flows "http://ns.adobe.com/Flows/1.0/">
]>
<svg version="1.1"
	 xmlns="http://www.w3.org/2000/svg" xmlns:xlink="http://www.w3.org/1999/xlink" xmlns:a="http://ns.adobe.com/AdobeSVGViewerExtensions/3.0/"
	 x="0px" y="0px" width="360px" height="40px" viewBox="-12.342 -11.694 360 40" enable-background="new -12.342 -11.694 360 40"
	 xml:space="preserve">
<defs>
</defs>
<path fill="#231815" d="M16.626,6.429c-0.085,0.433-0.352,0.904-0.797,1.41c-0.471,0.545-0.912,0.816-1.318,0.816h-2.357
	c-0.26,0-0.7,0.007-1.318,0.02c-0.47,0-0.816,0-1.038,0c-1.04,0-1.726,0.036-2.06,0.111C7.108,8.924,6.737,9.251,6.625,9.769
	L6.31,11.236c-0.135,0.641-0.563,1.175-1.28,1.597c-0.632,0.369-1.299,0.556-2.006,0.556H2.32c-0.604,0-1.125-0.143-1.557-0.429
	C0.253,12.627,0,12.175,0,11.608c0-0.137,0.012-0.261,0.037-0.372L2.005,2.18c0.136-0.655,0.558-1.188,1.261-1.596
	c0.629-0.371,1.305-0.558,2.022-0.558c5.419-0.035,8.809-0.035,10.169,0c0.583,0.013,1.064,0.162,1.448,0.447
	c0.433,0.309,0.649,0.741,0.649,1.297c0,0.162-0.019,0.328-0.056,0.501L16.626,6.429z M7.627,5.13
	C7.601,5.229,7.59,5.347,7.59,5.482c0,0.421,0.15,0.829,0.455,1.226c0.302,0.396,0.657,0.592,1.065,0.592
	c0.607,0,1.139-0.247,1.598-0.742c0.419-0.419,0.71-0.947,0.872-1.576l0.352-1.356c0.049-0.184,0.075-0.371,0.075-0.556
	c0-0.457-0.149-0.838-0.446-1.141c-0.298-0.303-0.674-0.454-1.132-0.454c-0.569,0-1.079,0.212-1.53,0.64
	C8.446,2.542,8.147,3.046,7.999,3.626L7.627,5.13z"/>
<path fill="#231815" d="M24.067,12.312c0.05,0.037,0.268,0.099,0.649,0.186c0.21,0.05,0.298,0.18,0.261,0.391
	c-0.075,0.333-0.384,0.5-0.927,0.5h-5.66c-0.348,0-0.521-0.312-0.521-0.929c0-0.209,0.02-0.399,0.057-0.573l2.153-10.078
	c0.087-0.419,0.306-0.775,0.659-1.066c0.353-0.291,0.738-0.436,1.159-0.436h2.599c0.346,0,0.636,0.111,0.872,0.334
	c0.234,0.222,0.351,0.507,0.351,0.853c0,0.101-0.011,0.205-0.037,0.316l-1.929,9.094c-0.05,0.236-0.074,0.414-0.074,0.535
	C23.679,11.874,23.809,12.162,24.067,12.312z"/>
<path fill="#231815" d="M34.088,7.321c0.334,0,0.662-0.063,0.984-0.187c0.395-0.173,0.623-0.396,0.686-0.667
	c0.062-0.284-0.08-0.508-0.426-0.668c-0.259-0.124-0.55-0.187-0.873-0.187h-5.158c-0.259,0-0.532-0.03-0.816-0.093
	c-0.421-0.098-0.613-0.234-0.577-0.407c0.075-0.321,0.606-0.482,1.596-0.482h10.764c0.357,0,0.649,0.105,0.873,0.315
	c0.221,0.211,0.333,0.488,0.333,0.835c0,0.111-0.012,0.223-0.037,0.334l-1.225,5.772c-0.087,0.419-0.304,0.774-0.65,1.065
	c-0.347,0.29-0.736,0.437-1.169,0.437H27.148c-0.347,0-0.634-0.106-0.863-0.325c-0.23-0.217-0.342-0.496-0.342-0.845
	c0-0.098,0.011-0.204,0.037-0.314l0.649-3.044c0.084-0.419,0.303-0.782,0.649-1.084c0.345-0.304,0.728-0.455,1.149-0.455H34.088z
	 M33.011,12.406c0.421,0,0.804-0.147,1.152-0.446c0.346-0.297,0.563-0.648,0.647-1.058l0.244-1.096
	c0.023-0.11,0.036-0.216,0.036-0.315c0-0.346-0.115-0.627-0.342-0.843c-0.229-0.216-0.516-0.326-0.864-0.326h-0.055
	c-0.418,0-0.803,0.146-1.149,0.437C32.335,9.05,32.118,9.4,32.033,9.808l-0.242,1.094c-0.026,0.11-0.042,0.217-0.042,0.313
	c0,0.347,0.117,0.631,0.354,0.854c0.234,0.223,0.525,0.336,0.87,0.336H33.011z"/>
<path fill="#231815" d="M56.819,4.629c0.358,0,0.653,0.108,0.882,0.325c0.227,0.217,0.342,0.504,0.342,0.862
	c0,0.087-0.012,0.186-0.037,0.298l-1.224,5.772c-0.087,0.419-0.307,0.774-0.66,1.065c-0.354,0.29-0.74,0.437-1.158,0.437h-2.618
	c-0.347,0-0.634-0.113-0.862-0.335c-0.23-0.221-0.343-0.506-0.343-0.854c0-0.099,0.011-0.204,0.033-0.315l1.019-4.749
	c0.016-0.112,0.023-0.218,0.023-0.315c0-0.347-0.113-0.631-0.342-0.853c-0.23-0.222-0.516-0.333-0.863-0.333h-0.277
	c-0.421,0-0.81,0.147-1.163,0.444C49.221,6.374,49,6.726,48.915,7.134l-1.002,4.752c-0.086,0.419-0.305,0.774-0.659,1.065
	c-0.354,0.29-0.739,0.437-1.16,0.437h-2.617c-0.346,0-0.633-0.113-0.862-0.335c-0.229-0.221-0.343-0.506-0.343-0.854
	c0-0.099,0.011-0.202,0.038-0.313l1.223-5.772c0.087-0.409,0.308-0.757,0.66-1.049c0.352-0.291,0.738-0.436,1.16-0.436H56.819z"/>
<path fill="#231815" d="M73.279,4.629c0.358,0,0.652,0.108,0.881,0.325c0.228,0.217,0.343,0.504,0.343,0.862
	c0,0.087-0.014,0.186-0.036,0.298l-1.226,5.772c-0.087,0.419-0.305,0.774-0.659,1.065c-0.352,0.29-0.738,0.437-1.159,0.437h-2.616
	c-0.347,0-0.634-0.113-0.864-0.335c-0.229-0.221-0.343-0.506-0.343-0.854c0-0.099,0.012-0.204,0.034-0.315l1.019-4.749
	c0.016-0.112,0.022-0.218,0.022-0.315c0-0.347-0.112-0.631-0.343-0.853c-0.229-0.222-0.517-0.333-0.863-0.333h-0.277
	c-0.421,0-0.807,0.147-1.161,0.444c-0.353,0.297-0.572,0.649-0.658,1.057l-1.002,4.752c-0.085,0.419-0.305,0.774-0.658,1.065
	c-0.352,0.29-0.739,0.437-1.162,0.437h-2.613c-0.349,0-0.635-0.113-0.865-0.335c-0.228-0.221-0.343-0.506-0.343-0.854
	c0-0.099,0.014-0.202,0.038-0.313l1.225-5.772c0.087-0.409,0.306-0.757,0.658-1.049c0.353-0.291,0.74-0.436,1.16-0.436H73.279z"/>
<path fill="#231815" d="M76.619,6.114c0.086-0.409,0.305-0.757,0.659-1.049c0.352-0.291,0.738-0.436,1.159-0.436h2.598
	c0.358,0,0.653,0.108,0.882,0.325c0.229,0.217,0.342,0.504,0.342,0.862c0,0.087-0.012,0.186-0.037,0.298l-1.225,5.772
	c-0.086,0.419-0.306,0.774-0.658,1.065c-0.354,0.29-0.74,0.437-1.161,0.437h-2.616c-0.347,0-0.635-0.113-0.865-0.335
	c-0.228-0.221-0.342-0.506-0.342-0.854c0-0.099,0.01-0.202,0.038-0.313L76.619,6.114z M82.019,0.009
	c0.333,0,0.625,0.099,0.872,0.296c0.247,0.197,0.372,0.464,0.372,0.798c0,0.433-0.191,0.81-0.576,1.132
	c-0.384,0.32-0.797,0.481-1.242,0.481h-2.617c-0.333,0-0.622-0.097-0.863-0.297c-0.24-0.197-0.36-0.463-0.36-0.796
	c0-0.446,0.187-0.826,0.565-1.142c0.378-0.316,0.789-0.473,1.235-0.473H82.019z"/>
<path fill="#231815" d="M98.291,4.629c0.361,0,0.653,0.108,0.883,0.325c0.229,0.217,0.343,0.504,0.343,0.862
	c0,0.087-0.011,0.186-0.036,0.298l-1.226,5.772c-0.086,0.419-0.306,0.774-0.658,1.065c-0.352,0.29-0.74,0.437-1.159,0.437H93.82
	c-0.346,0-0.635-0.113-0.862-0.335c-0.23-0.221-0.346-0.506-0.346-0.854c0-0.099,0.013-0.204,0.033-0.315l1.022-4.749
	c0.014-0.112,0.023-0.218,0.023-0.315c0-0.347-0.115-0.631-0.344-0.853c-0.229-0.222-0.518-0.333-0.863-0.333h-0.28
	c-0.42,0-0.806,0.147-1.159,0.444c-0.352,0.297-0.572,0.649-0.658,1.057l-1.003,4.752c-0.088,0.419-0.306,0.774-0.66,1.065
	c-0.352,0.29-0.738,0.437-1.158,0.437H84.95c-0.347,0-0.633-0.113-0.863-0.335c-0.229-0.221-0.342-0.506-0.342-0.854
	c0-0.099,0.01-0.202,0.037-0.313l1.225-5.772c0.085-0.409,0.305-0.757,0.658-1.049c0.352-0.291,0.739-0.436,1.16-0.436H98.291z"/>
<path fill="#231815" d="M113.825,15.151c-0.088,0.408-0.308,0.761-0.66,1.056c-0.353,0.299-0.733,0.449-1.14,0.449l-4.714,0.016
	c-2.089,0.014-3.661,0.02-4.714,0.02c-0.259,0-0.53-0.032-0.815-0.093c-0.421-0.086-0.612-0.222-0.576-0.407
	c0.037-0.174,0.272-0.312,0.705-0.409c0.311-0.063,0.606-0.093,0.893-0.093h3.82c0.409,0,0.793-0.116,1.15-0.352
	c0.411-0.262,0.613-0.59,0.613-0.983c0-0.311-0.132-0.55-0.398-0.716c-0.267-0.168-0.559-0.25-0.882-0.25h-5.641
	c-0.346,0-0.635-0.113-0.863-0.335c-0.229-0.221-0.344-0.506-0.344-0.854c0-0.099,0.013-0.202,0.041-0.313l1.223-5.772
	c0.086-0.409,0.306-0.757,0.659-1.049c0.352-0.291,0.74-0.436,1.161-0.436h9.61c0.817,0,1.35,0.006,1.597,0.02
	c0.865,0.036,1.299,0.308,1.299,0.815c0,0.162-0.031,0.384-0.092,0.669L113.825,15.151z M107.333,12.406
	c0.422,0,0.806-0.147,1.154-0.446c0.347-0.295,0.564-0.648,0.65-1.055l0.816-3.786c0.019-0.113,0.028-0.218,0.028-0.317
	c0-0.357-0.113-0.646-0.344-0.864c-0.229-0.216-0.521-0.326-0.88-0.326h-0.038c-0.419,0-0.807,0.147-1.16,0.438
	c-0.352,0.29-0.571,0.646-0.659,1.067l-0.797,3.785c-0.026,0.11-0.038,0.216-0.038,0.313c0,0.347,0.115,0.631,0.345,0.854
	c0.229,0.223,0.518,0.336,0.864,0.336H107.333z"/>
<path fill="#00A0E9" d="M139.031,9.296c0.128,4.347-3.741,7.983-8.647,8.132c-4.907,0.143-8.992-3.259-9.123-7.602
	c-0.127-4.343,3.748-7.98,8.653-8.127C134.821,1.553,138.9,4.954,139.031,9.296z"/>
<path fill="#FFFFFF" d="M134.792,8.476c-0.174,1.365-0.663,2.592-1.469,3.444c0.514,0.508,1.108,1.104,1.732,1.71l-2.663,0.081
	c-0.183-0.191-0.361-0.348-0.57-0.566c-0.595,0.428-1.473,0.754-2.562,0.788c-2.269,0.068-3.395-1.136-3.436-2.497
	c-0.036-1.179,0.637-2.038,1.765-2.621V8.764c-0.514-0.497-0.818-1.191-0.837-1.82c-0.037-1.215,0.964-2.435,2.902-2.493
	c1.559-0.045,2.696,0.764,2.736,2.063c0.025,0.881-0.422,1.679-1.848,2.471l0.001,0.063c0.525,0.556,1.151,1.257,1.579,1.642
	c0.362-0.57,0.552-1.401,0.613-2.153L134.792,8.476z M130.755,11.966c-0.597-0.512-1.39-1.336-2.126-2.086
	c-0.343,0.259-0.624,0.645-0.608,1.168c0.022,0.763,0.631,1.375,1.571,1.349C130.024,12.384,130.45,12.254,130.755,11.966z
	 M128.844,6.727c0.016,0.463,0.229,0.835,0.658,1.264c0.66-0.443,0.916-0.846,0.901-1.349c-0.011-0.4-0.241-0.875-0.778-0.857
	C129.061,5.8,128.832,6.288,128.844,6.727z"/>
<path fill="#231815" d="M157.378,7.031c0.618,0,1.15,0.149,1.595,0.446c0.532,0.348,0.797,0.811,0.797,1.395
	c0,0.124-0.012,0.242-0.036,0.354l-0.688,3.178c-0.146,0.672-0.539,1.218-1.175,1.646c-0.637,0.427-1.314,0.642-2.031,0.642H145.77
	c-0.469,0-0.977-0.045-1.519-0.132c-0.842-0.124-1.232-0.31-1.169-0.556c0.062-0.26,0.519-0.451,1.373-0.576
	c0.557-0.085,1.094-0.13,1.614-0.13h3.54c0.718,0,1.398-0.189,2.041-0.573c0.704-0.422,1.131-0.959,1.278-1.614v-0.036
	c0.05-0.235,0.074-0.471,0.074-0.704c0-0.383-0.074-0.712-0.221-0.983c-0.174-0.335-0.432-0.501-0.778-0.501h-4.971
	c-0.618,0-1.15-0.148-1.594-0.445c-0.533-0.334-0.796-0.791-0.796-1.373c0-0.134,0.01-0.26,0.034-0.371l0.705-3.17
	c0.149-0.656,0.576-1.193,1.28-1.613c0.643-0.383,1.324-0.574,2.041-0.574h9.735c0.47,0,0.977,0.043,1.52,0.13
	c0.842,0.123,1.23,0.308,1.168,0.555c-0.062,0.26-0.521,0.452-1.372,0.576c-0.57,0.085-1.115,0.129-1.631,0.129h-3.323
	c-0.715,0-1.395,0.185-2.038,0.555c-0.704,0.418-1.13,0.954-1.278,1.605c-0.05,0.222-0.075,0.45-0.075,0.684
	c0,0.368,0.075,0.69,0.223,0.96c0.174,0.332,0.432,0.498,0.779,0.498H157.378z"/>
<path fill="#231815" d="M176.201,5.79c0.495,0,0.96,0.093,1.392,0.278c0.556,0.235,0.835,0.564,0.835,0.983
	c0,0.063-0.008,0.124-0.019,0.186l-1.3,6.027c-0.099,0.469-0.49,0.841-1.169,1.111c-0.532,0.21-1.08,0.317-1.648,0.317h-10.201
	c-0.507,0-0.97-0.09-1.39-0.261c-0.557-0.235-0.834-0.567-0.834-1.003c0-0.049,0.005-0.104,0.018-0.165l1.298-6.027
	c0.1-0.47,0.482-0.841,1.149-1.112c0.544-0.225,1.102-0.334,1.668-0.334h0.63c0.497,0,0.959,0.085,1.393,0.26
	c0.554,0.234,0.833,0.567,0.833,1c0,0.063-0.005,0.124-0.016,0.186l-1.097,5.12c-0.011,0.061-0.018,0.135-0.018,0.222
	c0,0.394,0.187,0.704,0.557,0.927c0.32,0.184,0.691,0.276,1.112,0.276c0.481,0,0.938-0.122,1.371-0.369
	c0.483-0.273,0.775-0.625,0.875-1.056l1.094-5.12c0.097-0.47,0.481-0.841,1.149-1.112c0.543-0.225,1.101-0.334,1.668-0.334H176.201z
	"/>
<path fill="#231815" d="M194.04,5.938c0.346,0,0.634,0.112,0.864,0.334c0.227,0.223,0.341,0.507,0.341,0.854
	c0,0.086-0.012,0.185-0.035,0.296l-1.224,5.768c-0.089,0.418-0.31,0.776-0.662,1.065c-0.35,0.29-0.736,0.438-1.156,0.438h-5.769
	c-0.418,0-0.805,0.146-1.156,0.444c-0.354,0.295-0.573,0.649-0.659,1.059v0.054c-0.088,0.407-0.308,0.756-0.659,1.048
	c-0.354,0.289-0.737,0.436-1.159,0.436h-2.615c-0.347,0-0.633-0.106-0.861-0.324c-0.229-0.217-0.343-0.5-0.343-0.845
	c0-0.098,0.013-0.205,0.036-0.314l1.872-8.827c0.088-0.408,0.31-0.757,0.659-1.047c0.354-0.291,0.74-0.437,1.158-0.437H194.04z
	 M186.788,13.707c0.418,0,0.8-0.147,1.148-0.445c0.343-0.297,0.559-0.648,0.645-1.058l0.816-3.783
	c0.03-0.111,0.044-0.216,0.044-0.314c0-0.359-0.115-0.646-0.342-0.863c-0.229-0.215-0.524-0.323-0.881-0.323h-0.169
	c-0.418,0-0.807,0.145-1.158,0.435c-0.354,0.29-0.573,0.646-0.657,1.066l-0.799,3.781c-0.023,0.112-0.037,0.217-0.037,0.318
	c0,0.344,0.112,0.631,0.342,0.853c0.228,0.223,0.516,0.332,0.861,0.332H186.788z"/>
<path fill="#231815" d="M211.064,5.938c0.345,0,0.631,0.112,0.861,0.334c0.227,0.223,0.345,0.507,0.345,0.854
	c0,0.086-0.014,0.185-0.04,0.296l-1.223,5.768c-0.085,0.418-0.308,0.776-0.656,1.065c-0.354,0.29-0.742,0.438-1.162,0.438h-5.765
	c-0.421,0-0.807,0.146-1.16,0.444c-0.352,0.295-0.569,0.649-0.659,1.059v0.054c-0.085,0.407-0.308,0.756-0.657,1.048
	c-0.352,0.289-0.738,0.436-1.161,0.436h-2.614c-0.346,0-0.631-0.106-0.861-0.324c-0.23-0.217-0.342-0.5-0.342-0.845
	c0-0.098,0.01-0.205,0.036-0.314l1.872-8.827c0.09-0.408,0.308-0.757,0.659-1.047c0.352-0.291,0.741-0.437,1.158-0.437H211.064z
	 M203.809,13.707c0.42,0,0.802-0.147,1.149-0.445c0.346-0.297,0.561-0.648,0.646-1.058l0.815-3.783
	c0.028-0.111,0.043-0.216,0.043-0.314c0-0.359-0.112-0.646-0.343-0.863c-0.229-0.215-0.521-0.323-0.881-0.323h-0.166
	c-0.421,0-0.808,0.145-1.159,0.435c-0.352,0.29-0.573,0.646-0.657,1.066l-0.798,3.781c-0.024,0.112-0.038,0.217-0.038,0.318
	c0,0.344,0.115,0.631,0.344,0.853c0.227,0.223,0.513,0.332,0.86,0.332H203.809z"/>
<path fill="#231815" d="M227.567,5.918c0.558,0,1.04,0.131,1.444,0.391c0.473,0.308,0.707,0.722,0.707,1.243
	c0,0.074-0.012,0.173-0.037,0.295l-1.019,4.915c-0.125,0.581-0.496,1.056-1.113,1.427c-0.569,0.335-1.171,0.503-1.799,0.503h-10.219
	c-0.556,0-1.032-0.132-1.427-0.39c-0.47-0.311-0.706-0.724-0.706-1.245c0-0.073,0.013-0.172,0.038-0.295l1.021-4.915
	c0.122-0.58,0.494-1.056,1.111-1.428c0.568-0.333,1.169-0.5,1.8-0.5H227.567z M222.393,12.9c0.458-0.374,0.741-0.838,0.853-1.381
	l0.503-2.373c0.024-0.112,0.035-0.242,0.035-0.389c0-0.458-0.148-0.828-0.443-1.114c-0.296-0.284-0.677-0.426-1.132-0.426
	c-0.558,0-1.062,0.186-1.511,0.557c-0.455,0.37-0.731,0.829-0.846,1.373l-0.5,2.373c-0.024,0.111-0.037,0.24-0.037,0.39
	c0,0.457,0.148,0.832,0.445,1.12c0.298,0.294,0.675,0.438,1.132,0.438C221.435,13.466,221.937,13.278,222.393,12.9z"/>
<path fill="#231815" d="M242.272,7.031c-0.099,0.025-0.475,0.074-1.131,0.148l-2.484,0.297c-0.396,0.051-0.792,0.335-1.188,0.853
	c-0.333,0.47-0.55,0.927-0.646,1.374l-0.745,3.485c-0.084,0.418-0.303,0.776-0.654,1.065c-0.354,0.29-0.741,0.438-1.161,0.438
	h-2.617c-0.343,0-0.631-0.112-0.861-0.334c-0.228-0.223-0.341-0.508-0.341-0.854c0-0.1,0.009-0.206,0.037-0.315l1.223-5.768
	c0.089-0.408,0.307-0.757,0.659-1.047c0.354-0.291,0.739-0.437,1.156-0.437h7.901c0.966,0,1.448,0.192,1.448,0.576
	c0,0.061-0.013,0.127-0.038,0.203C242.803,6.853,242.618,6.958,242.272,7.031z"/>
<path fill="#231815" d="M251.729,13.707c0.272,0,0.543,0.033,0.815,0.094c0.421,0.086,0.613,0.216,0.574,0.389
	c-0.037,0.177-0.271,0.311-0.703,0.408c-0.311,0.062-0.605,0.095-0.89,0.095h-6.658c-0.345,0-0.633-0.112-0.861-0.334
	c-0.229-0.223-0.345-0.508-0.345-0.854c0-0.1,0.015-0.206,0.039-0.315l2.132-10.07c0.086-0.407,0.308-0.76,0.658-1.056
	c0.353-0.297,0.737-0.445,1.159-0.445h2.615c0.345,0,0.632,0.11,0.862,0.333c0.227,0.221,0.344,0.508,0.344,0.852
	c0,0.101-0.013,0.205-0.037,0.315l-0.26,1.207c-0.025,0.11-0.038,0.223-0.038,0.333c0,0.334,0.104,0.611,0.307,0.833
	c0.203,0.223,0.473,0.335,0.806,0.335c0.245,0,0.501,0.03,0.76,0.091c0.397,0.088,0.575,0.217,0.538,0.391
	c-0.037,0.172-0.26,0.308-0.667,0.408c-0.285,0.062-0.563,0.092-0.835,0.092c-0.395,0-0.759,0.149-1.084,0.446
	c-0.331,0.297-0.534,0.642-0.622,1.039l-0.834,3.911c-0.025,0.112-0.038,0.217-0.038,0.318c0,0.344,0.113,0.631,0.343,0.853
	c0.23,0.223,0.517,0.332,0.863,0.332H251.729z"/>
<path fill="#231815" d="M274.093,5.938c0.347,0,0.635,0.112,0.861,0.334c0.228,0.223,0.343,0.507,0.343,0.854
	c0,0.086-0.012,0.185-0.035,0.296l-1.224,5.768c-0.087,0.418-0.306,0.776-0.659,1.065c-0.352,0.29-0.738,0.438-1.159,0.438h-5.766
	c-0.423,0-0.81,0.146-1.161,0.444c-0.35,0.295-0.571,0.649-0.657,1.059v0.054c-0.089,0.407-0.308,0.756-0.659,1.048
	c-0.348,0.289-0.737,0.436-1.157,0.436h-2.615c-0.345,0-0.636-0.106-0.863-0.324c-0.229-0.217-0.342-0.5-0.342-0.845
	c0-0.098,0.011-0.205,0.037-0.314l1.874-8.827c0.083-0.408,0.305-0.757,0.656-1.047c0.351-0.291,0.736-0.437,1.16-0.437H274.093z
	 M266.838,13.707c0.42,0,0.804-0.147,1.148-0.445c0.346-0.297,0.559-0.648,0.648-1.058l0.816-3.783
	c0.027-0.111,0.044-0.216,0.044-0.314c0-0.359-0.115-0.646-0.345-0.863c-0.23-0.215-0.522-0.323-0.881-0.323h-0.167
	c-0.417,0-0.806,0.145-1.157,0.435c-0.352,0.29-0.571,0.646-0.661,1.066l-0.794,3.781c-0.027,0.112-0.038,0.217-0.038,0.318
	c0,0.344,0.113,0.631,0.342,0.853c0.229,0.223,0.516,0.332,0.859,0.332H266.838z"/>
<path fill="#231815" d="M282.514,13.615c0.049,0.036,0.265,0.098,0.647,0.186c0.21,0.05,0.297,0.179,0.259,0.389
	c-0.073,0.335-0.384,0.503-0.926,0.503h-5.655c-0.349,0-0.521-0.31-0.521-0.931c0-0.208,0.018-0.397,0.057-0.572l2.151-10.07
	c0.085-0.421,0.308-0.774,0.659-1.066c0.35-0.292,0.737-0.435,1.158-0.435h2.596c0.345,0,0.639,0.11,0.871,0.333
	c0.234,0.221,0.352,0.508,0.352,0.852c0,0.101-0.012,0.205-0.034,0.315l-1.932,9.085c-0.049,0.237-0.071,0.416-0.071,0.541
	C282.125,13.174,282.251,13.466,282.514,13.615z"/>
<path fill="#231815" d="M299.071,5.79c0.496,0,0.958,0.093,1.394,0.278c0.556,0.235,0.834,0.564,0.834,0.983
	c0,0.063-0.008,0.124-0.02,0.186l-1.299,6.027c-0.098,0.469-0.486,0.841-1.166,1.111c-0.532,0.21-1.084,0.317-1.653,0.317h-10.197
	c-0.506,0-0.969-0.09-1.392-0.261c-0.554-0.235-0.833-0.567-0.833-1.003c0-0.049,0.005-0.104,0.017-0.165l1.298-6.027
	c0.101-0.47,0.485-0.841,1.153-1.112c0.542-0.225,1.098-0.334,1.666-0.334h0.632c0.493,0,0.958,0.085,1.391,0.26
	c0.557,0.234,0.833,0.567,0.833,1c0,0.063-0.007,0.124-0.017,0.186l-1.095,5.12c-0.014,0.061-0.017,0.135-0.017,0.222
	c0,0.394,0.183,0.704,0.554,0.927c0.323,0.184,0.692,0.276,1.113,0.276c0.48,0,0.938-0.122,1.372-0.369
	c0.48-0.273,0.771-0.625,0.87-1.056l1.093-5.12c0.102-0.47,0.484-0.841,1.15-1.112c0.545-0.225,1.103-0.334,1.67-0.334H299.071z"/>
<path fill="#231815" d="M314.743,9.611c0.506,0,0.977,0.093,1.408,0.276c0.582,0.235,0.873,0.569,0.873,1.002
	c0,0.062-0.008,0.123-0.02,0.186l-0.445,2.114c-0.1,0.481-0.469,0.863-1.113,1.149c-0.521,0.235-1.063,0.354-1.632,0.354h-9.066
	c-1.706,0-2.531-0.156-2.467-0.464c0.036-0.176,0.444-0.303,1.224-0.391c0.52-0.049,0.993-0.076,1.427-0.076h3.17
	c0.583,0,1.146-0.11,1.688-0.333c0.69-0.271,1.092-0.642,1.188-1.112v-0.018c0.023-0.123,0.036-0.241,0.036-0.354
	c0-0.307-0.093-0.569-0.271-0.787c-0.178-0.217-0.424-0.325-0.731-0.325h-4.471c-0.492,0-0.963-0.084-1.407-0.258
	c-0.571-0.236-0.854-0.57-0.854-1.002c0-0.062,0.006-0.123,0.019-0.186l0.445-2.114c0.099-0.482,0.488-0.859,1.169-1.132
	c0.544-0.223,1.107-0.334,1.688-0.334h8.771c0.469,0,0.954,0.031,1.446,0.092c0.718,0.088,1.052,0.211,1.003,0.372
	c-0.036,0.174-0.445,0.303-1.225,0.39c-0.521,0.049-0.995,0.075-1.427,0.075h-2.986c-0.705,0-1.335,0.135-1.89,0.407
	c-0.671,0.333-1.004,0.792-1.004,1.373c0,0.296,0.087,0.554,0.27,0.769c0.178,0.217,0.416,0.326,0.714,0.326H314.743z"/>
<path fill="#231815" d="M331.968,14.692c-0.703,0-1.435-0.168-2.188-0.503c-0.804-0.357-1.398-0.81-1.782-1.353l-0.887-1.261
	c-0.3-0.42-0.587-0.631-0.872-0.631c-0.385,0-0.649,0.34-0.798,1.02l-0.131,0.574c-0.148,0.654-0.562,1.188-1.243,1.597
	c-0.617,0.369-1.284,0.557-2.002,0.557h-0.705c-0.604,0-1.137-0.144-1.595-0.43c-0.519-0.344-0.778-0.801-0.778-1.371
	c0-0.126,0.014-0.24,0.035-0.353l1.929-9.049c0.138-0.654,0.55-1.186,1.245-1.594c0.63-0.37,1.296-0.555,2.002-0.555h0.722
	c0.608,0,1.132,0.147,1.576,0.444c0.533,0.334,0.799,0.786,0.799,1.354c0,0.137-0.013,0.254-0.039,0.352l-0.089,0.371
	c-0.038,0.148-0.056,0.292-0.056,0.427c0,0.383,0.141,0.575,0.427,0.575c0.294,0,0.677-0.21,1.147-0.631l1.169-1.037
	c0.566-0.507,1.308-0.927,2.215-1.262c0.908-0.334,1.752-0.5,2.53-0.5h0.727c0.963,0,1.444,0.248,1.444,0.741
	c0,0.297-0.211,0.638-0.629,1.021l-3.285,2.948c-0.729,0.656-1.093,1.434-1.093,2.336c0,0.471,0.112,0.866,0.334,1.186l2.188,3.173
	c0.122,0.173,0.186,0.364,0.186,0.575c0,0.406-0.205,0.735-0.613,0.982c-0.345,0.198-0.735,0.298-1.165,0.298H331.968z"/>
</svg>
